<svg xmlns="http://www.w3.org/2000/svg" fill-rule="evenodd" stroke-linejoin="round" stroke-miterlimit="2" clip-rule="evenodd" viewBox="0 0 3000 3000">
  <defs/>
  <g>
    <path fill="none" d="M0 0h3000v3000H0z"/>
    <clipPath id="a">
      <path d="M0 0h3000v3000H0z"/>
    </clipPath>
    <g clip-path="url(#a)">
      <path fill="#1d1d21" d="M3000 126.813C3000 56.823 2943.18 0 2873.19 0H126.813C56.823 0 0 56.823 0 126.813V2873.19C0 2943.18 56.823 3000 126.813 3000H2873.19c69.99 0 126.81-56.82 126.81-126.81V126.813z"/>
      <clipPath id="b">
        <path d="M3000 126.813C3000 56.823 2943.18 0 2873.19 0H126.813C56.823 0 0 56.823 0 126.813V2873.19C0 2943.18 56.823 3000 126.813 3000H2873.19c69.99 0 126.81-56.82 126.81-126.81V126.813z"/>
      </clipPath>
      <g clip-path="url(#b)">
        <path fill="#d7d7dc" d="M2663.513 1880.025c15.968 0 28.931-12.966 28.931-28.923v-57.86c0-15.968-12.963-28.924-28.931-28.924h-399.855c-15.967 0-28.93 12.956-28.93 28.924v57.86c0 15.957 12.963 28.923 28.93 28.923h399.855z">
          <animate attributeName="fill" begin="0s" calcMode="discrete" dur="2s" repeatCount="indefinite" values="rgb(215,215,220);transparent"/>
        </path>
        <path fill="#d7d7dc" d="M1890.837 1462.697v-1.279c0-15.44 12.537-27.974 27.974-27.974h55.95c15.437 0 27.974 12.534 27.974 27.974v197.425c-.733 61.494.356 100.26 56.005 101.906 15.438.455 30.631 9.28 31.232 24.707l.277 56.083c.6 15.437-4.945 31.72-20.372 32.32-63.918 12.904-114.3-4.657-145.13-52.115-38.8 33.098-89.226 53.104-144.309 53.104-122.446 0-221.863-98.895-221.863-220.7 0-121.81 99.417-220.704 221.863-220.704 40.178 0 77.878 10.645 110.399 29.253zm0 180.477c-5.546-55.762-52.893-99.379-110.399-99.379-61.217 0-110.932 49.448-110.932 110.353 0 60.91 49.715 110.357 110.932 110.357 57.506 0 104.853-43.623 110.399-99.383v-21.948zM1395.183 1540.279c-11.014.896-17.583 5.99-17.171 17.683v64.66c-.111 116.776 49.203 148.585 126.158 145.607 15.427-.6 28.43 11.447 29.03 26.874l2.168 55.905c.6 15.427-11.437 28.442-26.863 29.042-160.602-7.825-242.148-87.125-242.392-239.916v-335.978c0-15.44 12.537-27.974 27.975-27.975h55.949c15.438.001 27.975 12.536 27.975 27.975v113.411c1.289 10.242 7.346 15.234 17.327 15.877h94.894c14.737 0 26.707 11.968 26.707 26.709v53.417c0 14.741-11.97 26.709-26.707 26.709h-95.05zM905.454 1276.18c9.858.002 17.86 8.004 17.86 17.86 0 0-.622 219.22 0 265.591.145 10.804 24.24 15.507 31.52 7.526 24.919-27.314 114.79-127.95 114.79-127.95 6.579-7.338 9.613-5.888 20.205-5.931 8.425-.035 84.936.121 106.442 0 11.436-.063 11.047 22.33 4.468 29.668 0 0-119.057 130.976-146.676 162.206-5.468 6.184-5.324 18.805.39 24.764 35.043 36.551 188.776 199.86 188.776 199.86 5.69 6.147 5.568 24.54-5.124 24.907-20.762.723-98.017-.722-105.864 0-9.858.912-19.416-6.368-25.096-12.514l-148.276-148.92c-5.201-5.708-35.443-14.794-35.554 14.303v129.27c0 9.86-8.003 17.861-17.861 17.861H829.41c-9.847 0-17.86-8.002-17.86-17.86v-562.78c0-9.857 8.001-17.859 17.86-17.86h76.044zM529.425 1433.28c122.457 0 221.875 98.894 221.875 220.704 0 121.808-99.418 220.7-221.875 220.7s-221.874-98.892-221.874-220.7c0-121.81 99.417-220.705 221.874-220.705zm0 110.35c61.222 0 110.93 49.448 110.93 110.354 0 60.905-49.708 110.358-110.93 110.358-61.221 0-110.93-49.453-110.93-110.358 0-60.906 49.709-110.353 110.93-110.353z"/>
        <path fill="#8c8c96" d="M0 0h2999.997v399.145H0z"/>
        <g transform="translate(-4548.87 -3405.31) scale(2.82253)">
          <circle cx="1986.18" cy="1277.18" r="45.406" fill="#3b3b3b"/>
          <clipPath id="c">
            <circle cx="1986.18" cy="1277.18" r="45.406"/>
          </clipPath>
          <g clip-path="url(#c)">
            <circle cx="1986.18" cy="1277.18" r="45.406" fill="#6e6e78" transform="translate(-19.123 -18.298)"/>
          </g>
        </g>
        <g transform="translate(-4977.68 -3405.31) scale(2.82253)">
          <circle cx="1986.18" cy="1277.18" r="45.406" fill="#3b3b3b"/>
          <clipPath id="d">
            <circle cx="1986.18" cy="1277.18" r="45.406"/>
          </clipPath>
          <g clip-path="url(#d)">
            <circle cx="1986.18" cy="1277.18" r="45.406" fill="#6e6e78" transform="translate(-19.123 -18.298)"/>
          </g>
        </g>
        <g transform="translate(-5406.49 -3405.31) scale(2.82253)">
          <circle cx="1986.18" cy="1277.18" r="45.406" fill="#3b3b3b"/>
          <clipPath id="e">
            <circle cx="1986.18" cy="1277.18" r="45.406"/>
          </clipPath>
          <g clip-path="url(#e)">
            <circle cx="1986.18" cy="1277.18" r="45.406" fill="#6e6e78" transform="translate(-19.123 -18.298)"/>
          </g>
        </g>
      </g>
    </g>
  </g>
</svg>
